<?xml version="1.0" encoding="UTF-8"?>
<svg id="Calque_1" data-name="Calque 1" xmlns="http://www.w3.org/2000/svg" xmlns:xlink="http://www.w3.org/1999/xlink" viewBox="0 0 600.91 324.31">
  <defs>
    <style>
      .cls-1 {
        fill: url(#Dégradé_sans_nom_7);
      }

      .cls-2 {
        fill: #9e9d9c;
      }

      .cls-3 {
        fill: #fff;
      }

      .cls-4 {
        fill: #e2161f;
      }
    </style>
    <linearGradient id="Dégradé_sans_nom_7" data-name="Dégradé sans nom 7" x1="80.33" y1="191.57" x2="465.38" y2="191.57" gradientUnits="userSpaceOnUse">
      <stop offset=".09" stop-color="#053e39"/>
      <stop offset="1" stop-color="#2eb196"/>
    </linearGradient>
  </defs>
  <rect class="cls-2" x="80.33" y="180.48" width="385.04" height="22.18"/>
  <rect class="cls-1" x="80.33" y="180.48" width="385.04" height="22.18"/>
  <path class="cls-4" d="M513.15,163.91h-31.49v38.75h38.75v-38.75h-7.27ZM513.5,187.27h-8.48v8.48h-7.97v-8.48h-8.48v-7.97h8.48v-8.48h7.97v8.48h8.48v7.97Z"/>
  <g>
    <path class="cls-3" d="M166.36,242.96v-21.85h8.4c2.42,0,4.45.49,6.08,1.46,1.63.98,2.86,2.29,3.69,3.94.83,1.65,1.25,3.48,1.25,5.49,0,2.22-.46,4.14-1.37,5.79-.91,1.64-2.2,2.91-3.85,3.82-1.65.9-3.59,1.35-5.8,1.35h-8.4ZM179.68,232.01c0-1.13-.2-2.12-.58-2.97-.39-.85-.95-1.51-1.69-1.98-.74-.47-1.62-.71-2.65-.71h-2.4v11.39h2.4c1.05,0,1.93-.25,2.66-.74.73-.49,1.29-1.17,1.68-2.05.39-.87.58-1.85.58-2.94Z"/>
    <path class="cls-3" d="M204.55,242.96v-21.85h6v21.85h-6Z"/>
    <path class="cls-3" d="M239.91,243.12c-1.42,0-2.77-.25-4.05-.75-1.28-.5-2.42-1.24-3.4-2.22-.98-.97-1.76-2.15-2.32-3.54-.56-1.38-.85-2.97-.85-4.75,0-1.54.29-2.96.86-4.28.57-1.31,1.37-2.47,2.39-3.46s2.2-1.77,3.55-2.32c1.35-.55,2.82-.83,4.4-.83,1.97,0,3.75.43,5.35,1.28,1.6.85,2.79,2.02,3.57,3.49l-4.46,3.42c-.43-.86-1.08-1.55-1.94-2.08-.86-.52-1.77-.78-2.74-.78-.72,0-1.37.14-1.97.43-.6.29-1.11.69-1.55,1.2-.44.51-.78,1.12-1.02,1.83-.24.71-.35,1.48-.35,2.32s.12,1.64.37,2.34c.25.7.59,1.3,1.03,1.8.44.5.97.89,1.58,1.17.62.28,1.3.42,2.06.42.96,0,1.89-.24,2.77-.72.88-.48,1.68-1.16,2.4-2.05v5.85c-1.64,1.5-3.54,2.25-5.69,2.25ZM245.29,235.64h-4.03v-4.31h8.99v11.63h-4.95v-7.32Z"/>
    <path class="cls-3" d="M269.36,242.96v-21.85h6v21.85h-6Z"/>
    <path class="cls-3" d="M312.29,226.35h-6.28v16.62h-6v-16.62h-6.31v-5.23h18.59v5.23Z"/>
    <path class="cls-3" d="M333.68,221.11h6.71l6.96,21.85h-6.09l-1.13-4.28h-6.17l-1.13,4.28h-6.12l6.99-21.85ZM339.07,234.69l-2.03-7.69-2.03,7.69h4.06Z"/>
    <path class="cls-3" d="M365.32,242.96v-21.85h6v16.62h9.91v5.23h-15.91Z"/>
  </g>
  <g>
    <path class="cls-3" d="M172.67,164.26h-48.57c-6.27,0-12.06-.92-17.38-2.77-5.32-1.85-9.91-4.55-13.75-8.09-3.85-3.55-6.87-7.85-9.06-12.91-2.19-5.06-3.28-10.83-3.28-17.32,0-6.04,1.11-11.58,3.34-16.64,2.23-5.06,5.26-9.4,9.11-13.02,3.85-3.62,8.38-6.43,13.58-8.43,5.21-2,10.79-3,16.75-3s11.55,1.02,16.75,3.06c5.21,2.04,9.74,4.87,13.58,8.49,3.85,3.62,6.89,7.94,9.11,12.96,2.23,5.02,3.34,10.55,3.34,16.58,0,2.87-.32,5.66-.96,8.38-.64,2.72-1.6,5.28-2.89,7.7-1.28,2.42-2.94,4.58-4.98,6.51-2.04,1.92-4.42,3.49-7.13,4.7v.23h22.42v13.58ZM98.97,123.16c0,3.47.64,6.72,1.92,9.74,1.28,3.02,3.04,5.64,5.26,7.87,2.22,2.23,4.81,3.98,7.75,5.26,2.94,1.28,6.11,1.92,9.51,1.92s6.57-.64,9.51-1.92c2.94-1.28,5.53-3.04,7.75-5.26,2.22-2.23,3.98-4.85,5.26-7.87,1.28-3.02,1.92-6.26,1.92-9.74s-.64-6.72-1.92-9.74c-1.28-3.02-3.04-5.64-5.26-7.87-2.23-2.23-4.81-3.98-7.75-5.26-2.94-1.28-6.11-1.92-9.51-1.92s-6.57.64-9.51,1.92c-2.94,1.28-5.53,3.04-7.75,5.26-2.23,2.23-3.98,4.85-5.26,7.87-1.28,3.02-1.92,6.27-1.92,9.74Z"/>
    <path class="cls-3" d="M184.21,124.18c0-6.41,1.08-12.23,3.23-17.43,2.15-5.21,5.15-9.64,9-13.3,3.85-3.66,8.42-6.47,13.7-8.43,5.28-1.96,11.06-2.94,17.32-2.94s12.04.98,17.32,2.94c5.28,1.96,9.85,4.77,13.7,8.43,3.85,3.66,6.85,8.09,9,13.3,2.15,5.21,3.23,11.02,3.23,17.43s-1.08,12.23-3.23,17.43c-2.15,5.21-5.15,9.64-9,13.3-3.85,3.66-8.42,6.47-13.7,8.43-5.28,1.96-11.06,2.94-17.32,2.94s-12.04-.98-17.32-2.94c-5.28-1.96-9.85-4.77-13.7-8.43-3.85-3.66-6.85-8.09-9-13.3-2.15-5.21-3.23-11.02-3.23-17.43ZM202.55,124.18c0,3.77.58,7.23,1.75,10.36,1.17,3.13,2.85,5.85,5.04,8.15,2.19,2.3,4.81,4.1,7.87,5.38,3.06,1.28,6.47,1.92,10.25,1.92s7.19-.64,10.25-1.92c3.06-1.28,5.68-3.07,7.87-5.38,2.19-2.3,3.87-5.02,5.04-8.15,1.17-3.13,1.75-6.58,1.75-10.36s-.58-7.13-1.75-10.3c-1.17-3.17-2.85-5.9-5.04-8.21-2.19-2.3-4.81-4.09-7.87-5.38-3.06-1.28-6.47-1.92-10.25-1.92s-7.19.64-10.25,1.92c-3.06,1.28-5.68,3.08-7.87,5.38-2.19,2.3-3.87,5.04-5.04,8.21-1.17,3.17-1.75,6.6-1.75,10.3Z"/>
    <path class="cls-3" d="M289.84,84.11h26.49c6.41,0,12.51.72,18.28,2.15,5.77,1.43,10.81,3.76,15.11,6.96,4.3,3.21,7.72,7.38,10.25,12.51,2.53,5.13,3.79,11.36,3.79,18.68,0,6.49-1.23,12.21-3.68,17.15-2.45,4.94-5.76,9.1-9.91,12.45-4.15,3.36-8.94,5.91-14.38,7.64-5.43,1.74-11.13,2.6-17.09,2.6h-28.87v-80.15ZM307.5,147.96h9.17c4.08,0,7.87-.41,11.38-1.25,3.51-.83,6.55-2.21,9.11-4.13,2.57-1.92,4.58-4.45,6.06-7.58,1.47-3.13,2.21-6.96,2.21-11.49,0-3.92-.74-7.34-2.21-10.25-1.47-2.9-3.45-5.3-5.94-7.19-2.49-1.89-5.42-3.3-8.77-4.25-3.36-.94-6.89-1.42-10.58-1.42h-10.42v47.55Z"/>
    <path class="cls-3" d="M378.59,124.18c0-6.41,1.08-12.23,3.23-17.43,2.15-5.21,5.15-9.64,9-13.3,3.85-3.66,8.42-6.47,13.7-8.43,5.28-1.96,11.06-2.94,17.32-2.94s12.04.98,17.32,2.94c5.28,1.96,9.85,4.77,13.7,8.43,3.85,3.66,6.85,8.09,9,13.3,2.15,5.21,3.23,11.02,3.23,17.43s-1.08,12.23-3.23,17.43c-2.15,5.21-5.15,9.64-9,13.3-3.85,3.66-8.42,6.47-13.7,8.43-5.28,1.96-11.06,2.94-17.32,2.94s-12.04-.98-17.32-2.94c-5.28-1.96-9.85-4.77-13.7-8.43-3.85-3.66-6.85-8.09-9-13.3-2.15-5.21-3.23-11.02-3.23-17.43ZM396.93,124.18c0,3.77.58,7.23,1.75,10.36,1.17,3.13,2.85,5.85,5.04,8.15,2.19,2.3,4.81,4.1,7.87,5.38,3.06,1.28,6.47,1.92,10.25,1.92s7.19-.64,10.25-1.92c3.06-1.28,5.68-3.07,7.87-5.38,2.19-2.3,3.87-5.02,5.04-8.15,1.17-3.13,1.75-6.58,1.75-10.36s-.58-7.13-1.75-10.3c-1.17-3.17-2.85-5.9-5.04-8.21-2.19-2.3-4.81-4.09-7.87-5.38-3.06-1.28-6.47-1.92-10.25-1.92s-7.19.64-10.25,1.92c-3.06,1.28-5.68,3.08-7.87,5.38-2.19,2.3-3.87,5.04-5.04,8.21-1.17,3.17-1.75,6.6-1.75,10.3Z"/>
  </g>
</svg>