<?xml version="1.0" encoding="UTF-8"?>
<svg id="Calque_1" data-name="Calque 1" xmlns="http://www.w3.org/2000/svg" xmlns:xlink="http://www.w3.org/1999/xlink" viewBox="0 0 256 256">
  <defs>
    <style>
      .cls-1 {
        fill: url(#Dégradé_sans_nom_7);
      }

      .cls-2 {
        fill: #fff;
      }
    </style>
    <linearGradient id="Dégradé_sans_nom_7" data-name="Dégradé sans nom 7" x1="58.51" y1="195.12" x2="196.77" y2="195.12" gradientUnits="userSpaceOnUse">
      <stop offset=".09" stop-color="#053e39"/>
      <stop offset="1" stop-color="#2fb195"/>
    </linearGradient>
  </defs>
  <rect class="cls-1" x="58.51" y="183.3" width="138.25" height="23.64"/>
  <path class="cls-2" d="M196.58,168.95h-72.92c-9.41,0-18.1-1.39-26.09-4.16-7.99-2.78-14.87-6.83-20.65-12.15-5.78-5.32-10.31-11.78-13.6-19.38-3.29-7.59-4.93-16.26-4.93-26.01,0-9.06,1.67-17.39,5.01-24.99,3.34-7.59,7.9-14.11,13.68-19.55,5.78-5.44,12.58-9.66,20.4-12.66,7.82-3,16.2-4.5,25.16-4.5s17.34,1.53,25.16,4.59c7.82,3.06,14.62,7.31,20.4,12.75,5.78,5.44,10.34,11.93,13.68,19.46,3.34,7.54,5.01,15.84,5.01,24.9,0,4.31-.48,8.5-1.44,12.58-.96,4.08-2.41,7.93-4.34,11.56-1.93,3.63-4.42,6.88-7.48,9.77-3.06,2.89-6.63,5.24-10.71,7.05v.34h33.66v20.4ZM85.93,107.25c0,5.21.96,10.09,2.89,14.62,1.93,4.53,4.56,8.47,7.9,11.81,3.34,3.34,7.22,5.98,11.64,7.9,4.42,1.93,9.18,2.89,14.28,2.89s9.86-.96,14.28-2.89c4.42-1.93,8.3-4.56,11.64-7.9,3.34-3.34,5.98-7.28,7.9-11.81,1.93-4.53,2.89-9.4,2.89-14.62s-.96-10.08-2.89-14.62c-1.93-4.53-4.56-8.47-7.9-11.81-3.34-3.34-7.22-5.98-11.64-7.9-4.42-1.93-9.18-2.89-14.28-2.89s-9.86.96-14.28,2.89c-4.42,1.93-8.3,4.56-11.64,7.9-3.34,3.34-5.98,7.28-7.9,11.81-1.93,4.53-2.89,9.41-2.89,14.62Z"/>
  <g>
    <rect class="cls-2" x="173.46" y="192.87" width="14.07" height="4.5"/>
    <rect class="cls-2" x="173.46" y="192.87" width="14.07" height="4.5" transform="translate(-14.62 375.61) rotate(-90)"/>
  </g>
</svg>