<?xml version="1.0" encoding="UTF-8"?>
<svg id="Calque_1" data-name="Calque 1" xmlns="http://www.w3.org/2000/svg" viewBox="0 0 1000 1000">
  <defs>
    <style>
      .cls-1 {
        fill: #2fb196;
      }

      .cls-2 {
        fill: #fff;
      }

      .cls-3 {
        fill: #f4a02c;
      }

      .cls-4 {
        fill: #063e39;
      }
    </style>
  </defs>
  <rect class="cls-4" y="0" width="1000" height="1000"/>
  <rect class="cls-1" x="-7.55" y="547.96" width="32.44" height="452.04"/>
  <rect class="cls-1" x="62.64" y="547.96" width="32.44" height="452.04"/>
  <rect class="cls-1" x="132.83" y="547.96" width="32.44" height="452.04"/>
  <rect class="cls-1" x="203.02" y="547.96" width="32.44" height="452.04"/>
  <rect class="cls-1" x="273.21" y="547.96" width="32.44" height="452.04"/>
  <rect class="cls-1" x="343.4" y="547.96" width="32.44" height="452.04"/>
  <rect class="cls-1" x="413.59" y="547.96" width="32.44" height="452.04"/>
  <rect class="cls-1" x="483.78" y="547.96" width="32.44" height="452.04"/>
  <rect class="cls-1" x="553.97" y="547.96" width="32.44" height="452.04"/>
  <rect class="cls-1" x="624.16" y="547.96" width="32.44" height="452.04"/>
  <rect class="cls-1" x="694.35" y="547.96" width="32.44" height="452.04"/>
  <rect class="cls-1" x="764.54" y="547.96" width="32.44" height="452.04"/>
  <rect class="cls-1" x="834.73" y="547.96" width="32.44" height="452.04"/>
  <rect class="cls-1" x="904.92" y="547.96" width="32.44" height="452.04"/>
  <rect class="cls-1" x="975.11" y="547.96" width="32.44" height="452.04"/>
  <g>
    <path class="cls-3" d="M793.3,694.73c-20.04,13.53-41.7,24.05-65,31.56-23.29,7.51-47.97,11.27-74.01,11.27-38.08,0-72.77-7.76-104.07-23.29-31.31-15.52-58.24-35.81-80.78-60.87-22.54-25.04-39.96-53.84-52.22-86.41-12.28-32.56-18.41-65.87-18.41-99.94s6.5-69.62,19.54-102.19c13.02-32.56,30.93-61.36,53.73-86.41,22.79-25.04,49.84-44.96,81.15-59.74,31.3-14.77,65.49-22.17,102.57-22.17s72.76,7.89,104.07,23.67c31.3,15.78,58.11,36.44,80.4,61.99,22.28,25.55,39.57,54.48,51.85,86.79,12.27,32.31,18.41,65.26,18.41,98.81,0,35.58-6.27,69.26-18.79,101.07-12.53,31.82-30.06,60.24-52.6,85.29l69.88,79.65h-81.15l-34.57-39.07ZM655.04,661.67c16.53,0,32.05-2.25,46.59-6.76,14.52-4.51,27.8-10.77,39.83-18.79l-75.89-87.92h81.15l38.32,44.33c13.02-17.53,22.79-37.2,29.31-58.99,6.5-21.79,9.77-43.96,9.77-66.5,0-25.55-4.02-49.97-12.02-73.26-8.02-23.29-19.42-43.96-34.19-61.99-14.78-18.03-32.57-32.43-53.35-43.21-20.79-10.77-43.96-16.16-69.51-16.16-27.05,0-51.1,5.64-72.14,16.91-21.04,11.27-38.83,26.05-53.35,44.33-14.54,18.29-25.68,39.07-33.44,62.37-7.77,23.29-11.65,46.96-11.65,71.01s4,49.35,12.02,72.89c8.01,23.55,19.41,44.33,34.19,62.37,14.77,18.03,32.69,32.44,53.73,43.21,21.04,10.78,44.58,16.16,70.63,16.16Z"/>
    <path class="cls-2" d="M283.96,196.37h74.61l213.18,540.56h-89.84l-57.1-146.94h-208.61l-56.34,146.94h-90.6L283.96,196.37ZM408.06,526.79l-86.79-232.21-89.84,232.21h176.63Z"/>
  </g>
</svg>